<mxfile host="app.diagrams.net" agent="Mozilla/5.0 (Windows NT 10.0; Win64; x64) AppleWebKit/537.36 (KHTML, like Gecko) Chrome/136.0.0.0 Safari/537.36" version="27.1.1">
  <diagram name="Page-1" id="6_fFjZS7AfGLVRapJUva">
    <mxGraphModel dx="1025" dy="459" grid="1" gridSize="10" guides="1" tooltips="1" connect="1" arrows="1" fold="1" page="1" pageScale="1" pageWidth="850" pageHeight="1100" math="0" shadow="0">
      <root>
        <mxCell id="0" />
        <mxCell id="1" parent="0" />
        <mxCell id="dJadIG7xrA80HWyYOXyv-1" value="vlan 10&amp;nbsp;&lt;div&gt;interface vlan 10&amp;nbsp;&lt;/div&gt;&lt;div&gt;ip address 10.0.10.1 255.255.255.0&amp;nbsp;&lt;/div&gt;" style="rounded=0;whiteSpace=wrap;html=1;" vertex="1" parent="1">
          <mxGeometry x="230" y="90" width="120" height="120" as="geometry" />
        </mxCell>
        <mxCell id="dJadIG7xrA80HWyYOXyv-2" value="" style="endArrow=none;html=1;rounded=0;exitX=0.975;exitY=0.339;exitDx=0;exitDy=0;exitPerimeter=0;" edge="1" parent="1" source="dJadIG7xrA80HWyYOXyv-1" target="dJadIG7xrA80HWyYOXyv-3">
          <mxGeometry width="50" height="50" relative="1" as="geometry">
            <mxPoint x="400" y="270" as="sourcePoint" />
            <mxPoint x="580" y="110" as="targetPoint" />
          </mxGeometry>
        </mxCell>
        <mxCell id="dJadIG7xrA80HWyYOXyv-3" value="core 1" style="rounded=0;whiteSpace=wrap;html=1;" vertex="1" parent="1">
          <mxGeometry x="600" y="110" width="120" height="60" as="geometry" />
        </mxCell>
        <mxCell id="dJadIG7xrA80HWyYOXyv-4" value="&lt;span style=&quot;color: rgb(27, 28, 29); font-family: CiscoSans; font-size: 16px; text-align: left; background-color: rgb(255, 255, 255);&quot;&gt;192.168.255.1 255.255.255.252&lt;/span&gt;" style="text;html=1;align=center;verticalAlign=middle;whiteSpace=wrap;rounded=0;" vertex="1" parent="1">
          <mxGeometry x="390" y="150" width="60" height="30" as="geometry" />
        </mxCell>
        <mxCell id="dJadIG7xrA80HWyYOXyv-6" value="&lt;span style=&quot;color: rgb(27, 28, 29); font-family: CiscoSans; font-size: 16px; text-align: left; background-color: rgb(255, 255, 255);&quot;&gt;192.168.255.2 255.255.255.252&lt;/span&gt;" style="text;html=1;align=center;verticalAlign=middle;whiteSpace=wrap;rounded=0;" vertex="1" parent="1">
          <mxGeometry x="550" y="190" width="60" height="30" as="geometry" />
        </mxCell>
      </root>
    </mxGraphModel>
  </diagram>
</mxfile>
